<svg id="visual" viewBox="0 0 900 600" width="900" height="600" xmlns="http://www.w3.org/2000/svg" xmlns:xlink="http://www.w3.org/1999/xlink" version="1.1"><g stroke-width="1" stroke-linejoin="bevel"><path d="M408 314L331 325L419 366Z" fill="#205a7a" stroke="#205a7a"></path><path d="M331 325L332 375L419 366Z" fill="#19435d" stroke="#19435d"></path><path d="M408 314L332 237L331 325Z" fill="#081a28" stroke="#081a28"></path><path d="M332 375L365 488L419 366Z" fill="#1d4e6b" stroke="#1d4e6b"></path><path d="M525 296L423 209L408 314Z" fill="#297ea6" stroke="#297ea6"></path><path d="M408 314L423 209L332 237Z" fill="#246688" stroke="#246688"></path><path d="M529 435L525 296L419 366Z" fill="#205a7a" stroke="#205a7a"></path><path d="M419 366L525 296L408 314Z" fill="#205a7a" stroke="#205a7a"></path><path d="M191 367L269 481L332 375Z" fill="#112e42" stroke="#112e42"></path><path d="M332 375L269 481L365 488Z" fill="#1d4e6b" stroke="#1d4e6b"></path><path d="M191 367L332 375L331 325Z" fill="#277297" stroke="#277297"></path><path d="M219 139L228 261L332 237Z" fill="#277297" stroke="#277297"></path><path d="M332 237L228 261L331 325Z" fill="#1d4e6b" stroke="#1d4e6b"></path><path d="M365 488L529 435L419 366Z" fill="#297ea6" stroke="#297ea6"></path><path d="M228 261L191 367L331 325Z" fill="#15384f" stroke="#15384f"></path><path d="M525 296L490 176L423 209Z" fill="#19435d" stroke="#19435d"></path><path d="M423 209L380 135L332 237Z" fill="#205a7a" stroke="#205a7a"></path><path d="M490 176L380 135L423 209Z" fill="#205a7a" stroke="#205a7a"></path><path d="M191 367L191 468L269 481Z" fill="#277297" stroke="#277297"></path><path d="M365 488L519 535L529 435Z" fill="#1d4e6b" stroke="#1d4e6b"></path><path d="M412 600L519 535L365 488Z" fill="#277297" stroke="#277297"></path><path d="M412 600L365 488L323 600Z" fill="#00101c" stroke="#00101c"></path><path d="M598 467L616 408L529 435Z" fill="#112e42" stroke="#112e42"></path><path d="M529 435L616 408L525 296Z" fill="#00101c" stroke="#00101c"></path><path d="M525 296L609 237L490 176Z" fill="#246688" stroke="#246688"></path><path d="M416 0L321 102L380 135Z" fill="#277297" stroke="#277297"></path><path d="M380 135L321 102L332 237Z" fill="#205a7a" stroke="#205a7a"></path><path d="M519 535L598 467L529 435Z" fill="#246688" stroke="#246688"></path><path d="M323 600L365 488L269 481Z" fill="#15384f" stroke="#15384f"></path><path d="M235 600L323 600L269 481Z" fill="#19435d" stroke="#19435d"></path><path d="M616 408L624 292L525 296Z" fill="#0c2435" stroke="#0c2435"></path><path d="M321 102L219 139L332 237Z" fill="#205a7a" stroke="#205a7a"></path><path d="M77 288L113 378L191 367Z" fill="#297ea6" stroke="#297ea6"></path><path d="M624 292L609 237L525 296Z" fill="#297ea6" stroke="#297ea6"></path><path d="M191 367L113 378L191 468Z" fill="#19435d" stroke="#19435d"></path><path d="M77 288L191 367L228 261Z" fill="#277297" stroke="#277297"></path><path d="M219 139L179 160L228 261Z" fill="#15384f" stroke="#15384f"></path><path d="M624 86L498 107L490 176Z" fill="#081a28" stroke="#081a28"></path><path d="M490 176L498 107L380 135Z" fill="#0c2435" stroke="#0c2435"></path><path d="M412 600L509 600L519 535Z" fill="#112e42" stroke="#112e42"></path><path d="M519 535L610 600L598 467Z" fill="#297ea6" stroke="#297ea6"></path><path d="M191 468L235 600L269 481Z" fill="#112e42" stroke="#112e42"></path><path d="M126 600L235 600L191 468Z" fill="#277297" stroke="#277297"></path><path d="M113 378L114 490L191 468Z" fill="#1d4e6b" stroke="#1d4e6b"></path><path d="M616 408L671 391L624 292Z" fill="#246688" stroke="#246688"></path><path d="M624 292L708 306L609 237Z" fill="#1d4e6b" stroke="#1d4e6b"></path><path d="M598 467L671 391L616 408Z" fill="#246688" stroke="#246688"></path><path d="M721 526L671 391L598 467Z" fill="#1d4e6b" stroke="#1d4e6b"></path><path d="M120 181L77 288L228 261Z" fill="#277297" stroke="#277297"></path><path d="M113 378L0 378L114 490Z" fill="#0c2435" stroke="#0c2435"></path><path d="M179 160L120 181L228 261Z" fill="#277297" stroke="#277297"></path><path d="M118 98L120 181L179 160Z" fill="#0c2435" stroke="#0c2435"></path><path d="M671 391L708 306L624 292Z" fill="#081a28" stroke="#081a28"></path><path d="M609 237L624 86L490 176Z" fill="#205a7a" stroke="#205a7a"></path><path d="M509 600L610 600L519 535Z" fill="#081a28" stroke="#081a28"></path><path d="M671 391L777 434L708 306Z" fill="#00101c" stroke="#00101c"></path><path d="M505 0L416 0L498 107Z" fill="#19435d" stroke="#19435d"></path><path d="M498 107L416 0L380 135Z" fill="#15384f" stroke="#15384f"></path><path d="M321 102L306 0L219 139Z" fill="#00101c" stroke="#00101c"></path><path d="M219 139L118 98L179 160Z" fill="#0c2435" stroke="#0c2435"></path><path d="M114 490L126 600L191 468Z" fill="#205a7a" stroke="#205a7a"></path><path d="M0 506L126 600L114 490Z" fill="#1d4e6b" stroke="#1d4e6b"></path><path d="M416 0L306 0L321 102Z" fill="#205a7a" stroke="#205a7a"></path><path d="M185 0L118 98L219 139Z" fill="#19435d" stroke="#19435d"></path><path d="M0 215L0 329L77 288Z" fill="#081a28" stroke="#081a28"></path><path d="M690 130L624 86L609 237Z" fill="#15384f" stroke="#15384f"></path><path d="M624 86L505 0L498 107Z" fill="#0c2435" stroke="#0c2435"></path><path d="M0 215L77 288L120 181Z" fill="#19435d" stroke="#19435d"></path><path d="M77 288L0 329L113 378Z" fill="#00101c" stroke="#00101c"></path><path d="M0 329L0 378L113 378Z" fill="#297ea6" stroke="#297ea6"></path><path d="M738 212L690 130L609 237Z" fill="#112e42" stroke="#112e42"></path><path d="M624 86L604 0L505 0Z" fill="#15384f" stroke="#15384f"></path><path d="M708 306L738 212L609 237Z" fill="#081a28" stroke="#081a28"></path><path d="M610 600L721 526L598 467Z" fill="#00101c" stroke="#00101c"></path><path d="M708 306L829 265L738 212Z" fill="#081a28" stroke="#081a28"></path><path d="M306 0L185 0L219 139Z" fill="#19435d" stroke="#19435d"></path><path d="M0 78L0 215L120 181Z" fill="#277297" stroke="#277297"></path><path d="M0 78L120 181L118 98Z" fill="#205a7a" stroke="#205a7a"></path><path d="M0 378L0 506L114 490Z" fill="#277297" stroke="#277297"></path><path d="M721 526L777 434L671 391Z" fill="#19435d" stroke="#19435d"></path><path d="M661 0L604 0L624 86Z" fill="#205a7a" stroke="#205a7a"></path><path d="M185 0L139 0L118 98Z" fill="#246688" stroke="#246688"></path><path d="M721 526L786 460L777 434Z" fill="#297ea6" stroke="#297ea6"></path><path d="M777 434L829 265L708 306Z" fill="#081a28" stroke="#081a28"></path><path d="M610 600L722 600L721 526Z" fill="#15384f" stroke="#15384f"></path><path d="M721 526L813 600L786 460Z" fill="#1d4e6b" stroke="#1d4e6b"></path><path d="M0 506L0 600L126 600Z" fill="#00101c" stroke="#00101c"></path><path d="M798 119L661 0L690 130Z" fill="#1d4e6b" stroke="#1d4e6b"></path><path d="M690 130L661 0L624 86Z" fill="#081a28" stroke="#081a28"></path><path d="M0 0L0 78L118 98Z" fill="#112e42" stroke="#112e42"></path><path d="M900 364L829 265L777 434Z" fill="#205a7a" stroke="#205a7a"></path><path d="M738 212L798 119L690 130Z" fill="#246688" stroke="#246688"></path><path d="M829 265L835 225L738 212Z" fill="#081a28" stroke="#081a28"></path><path d="M835 225L798 119L738 212Z" fill="#19435d" stroke="#19435d"></path><path d="M722 600L813 600L721 526Z" fill="#19435d" stroke="#19435d"></path><path d="M786 460L900 364L777 434Z" fill="#15384f" stroke="#15384f"></path><path d="M829 265L900 209L835 225Z" fill="#15384f" stroke="#15384f"></path><path d="M139 0L0 0L118 98Z" fill="#081a28" stroke="#081a28"></path><path d="M900 532L900 364L786 460Z" fill="#15384f" stroke="#15384f"></path><path d="M835 225L900 209L798 119Z" fill="#19435d" stroke="#19435d"></path><path d="M900 364L900 329L829 265Z" fill="#246688" stroke="#246688"></path><path d="M900 329L900 209L829 265Z" fill="#00101c" stroke="#00101c"></path><path d="M813 600L900 532L786 460Z" fill="#15384f" stroke="#15384f"></path><path d="M900 68L838 0L798 119Z" fill="#112e42" stroke="#112e42"></path><path d="M798 119L838 0L661 0Z" fill="#277297" stroke="#277297"></path><path d="M813 600L900 600L900 532Z" fill="#297ea6" stroke="#297ea6"></path><path d="M900 209L900 68L798 119Z" fill="#297ea6" stroke="#297ea6"></path><path d="M900 68L900 0L838 0Z" fill="#081a28" stroke="#081a28"></path></g></svg>